<svg width="191.7mm" height="168.39mm" version="1.1" viewBox="0 0 191.7 168.39" xmlns="http://www.w3.org/2000/svg">
 <g transform="translate(-9.1475 -20.806)">
  <path d="m81.908 189.19c14.507-12.545 13.641-67.907 13.641-67.907l18.56 2e-5s-0.86524 55.362 13.641 67.907z" fill="#803300"/>
  <g fill="#19f52c">
   <g fill-rule="evenodd">
    <circle cx="19.053" cy="67.31" r="8.6808"/>
    <circle cx="40.006" cy="88.061" r="8.6808"/>
    <circle cx="79.997" cy="99.739" r="8.6808"/>
    <circle cx="68.203" cy="133.44" r="8.6808"/>
    <circle cx="105.86" cy="74.321" r="8.6808"/>
    <circle cx="38.754" cy="131.9" r="8.6808"/>
    <circle cx="127.11" cy="124.1" r="8.6808"/>
    <circle cx="97.819" cy="119.49" r="8.6808"/>
    <circle cx="19.67" cy="109.42" r="8.6808"/>
    <circle cx="48.138" cy="59.715" r="8.6808"/>
    <circle cx="95.703" cy="44.581" r="8.6808"/>
    <circle cx="77.134" cy="67.671" r="8.6808"/>
    <circle cx="121.04" cy="29.486" r="8.6808"/>
    <circle cx="119.73" cy="98.423" r="8.6808"/>
    <circle cx="51.945" cy="108.83" r="8.6808"/>
   </g>
   <g stroke="#19f52c" stroke-width="1.8939">
    <path d="m38.754 131.9-19.084-22.481"/>
    <path d="m19.67 109.42 20.336-21.356"/>
    <path d="m19.053 67.31 20.953 20.75"/>
    <path d="m51.945 108.83 16.258 24.602"/>
    <path d="m51.945 108.83 28.052-9.0944"/>
    <path d="m48.138 59.715-8.132 28.346"/>
    <path d="m48.138 59.715 28.996 7.956"/>
    <path d="m77.134 67.671 28.73 6.6502"/>
    <path d="m77.134 67.671 18.569-23.089"/>
    <path d="m95.703 44.581 25.333-15.095"/>
    <path d="m105.86 74.321 13.863 24.103"/>
    <path d="m73.582 133.41 24.237-13.916"/>
    <path d="m97.819 119.49 21.907-21.071"/>
    <path d="m97.819 119.49 29.289 4.6056"/>
    <path d="m17.828 153.33 20.926-21.434"/>
   </g>
   <circle cx="17.828" cy="153.33" r="8.6808" fill-rule="evenodd"/>
   <circle cx="53.865" cy="159.2" r="8.6808" fill-rule="evenodd"/>
   <path d="m38.754 131.9 15.111 27.303" stroke="#19f52c" stroke-width="1.8939"/>
   <path d="m127.11 124.1 13.863 24.103" stroke="#19f52c" stroke-width="1.8939"/>
   <circle cx="140.97" cy="148.2" r="8.6808" fill-rule="evenodd"/>
   <path d="m140.97 148.2 20.559-17.279" stroke="#19f52c" stroke-width="1.8939"/>
   <g fill-rule="evenodd">
    <circle cx="161.53" cy="130.92" r="8.6808"/>
    <circle cx="148.77" cy="105.42" r="8.6808"/>
    <circle cx="161.93" cy="80.961" r="8.6808"/>
    <circle cx="134.44" cy="73.351" r="8.6808"/>
    <circle cx="172.46" cy="44.584" r="8.6808"/>
    <circle cx="192.17" cy="132.75" r="8.6808"/>
    <circle cx="175.39" cy="155.03" r="8.6808"/>
    <circle cx="68.229" cy="33.867" r="8.6808"/>
    <circle cx="143.95" cy="45.376" r="8.6808"/>
   </g>
   <g stroke="#19f52c" stroke-width="1.8939">
    <path d="m161.53 130.92 13.863 24.103"/>
    <path d="m175.39 155.03 16.778-22.271"/>
    <path d="m119.73 98.423 29.041 6.9934"/>
    <path d="m148.77 105.42 12.763 25.506"/>
    <path d="m105.86 74.321 28.58-0.96983"/>
    <path d="m148.77 105.42 29.455-1.4191"/>
    <path d="m143.95 45.376 28.511-0.79158"/>
    <path d="m121.04 29.486 22.914 15.89"/>
    <path d="m38.754 131.9 29.449 1.5377"/>
    <path d="m77.134 67.671 2.8632 32.068"/>
    <path d="m68.229 33.867 27.474 10.715"/>
    <path d="m48.138 59.715 20.091-25.848"/>
    <path d="m143.95 45.376-9.5064 27.975"/>
   </g>
   <circle cx="178.22" cy="104" r="8.6808" fill-rule="evenodd"/>
   <path d="m172.46 44.584 16.663 26.606" stroke="#19f52c" stroke-width="1.8939"/>
   <path d="m134.44 73.351 27.488 7.6103" stroke="#19f52c" stroke-width="1.8939"/>
   <circle cx="189.12" cy="71.19" r="8.6808" fill-rule="evenodd"/>
   <path d="m189.12 71.19-27.193 9.7712" stroke="#19f52c" stroke-width="1.8939"/>
   <path d="m161.93 80.961 16.292 23.036" stroke="#19f52c" stroke-width="1.8939"/>
  </g>
 </g>
</svg>
